<?xml version="1.0" encoding="UTF-8"?>
<!DOCTYPE svg PUBLIC "-//W3C//DTD SVG 1.1//EN" "http://www.w3.org/Graphics/SVG/1.1/DTD/svg11.dtd">
<!-- Creator: CorelDRAW -->
<svg xmlns="http://www.w3.org/2000/svg" xml:space="preserve" width="13.8314mm" height="13.808mm" version="1.1" style="shape-rendering:geometricPrecision; text-rendering:geometricPrecision; image-rendering:optimizeQuality; fill-rule:evenodd; clip-rule:evenodd"
viewBox="0 0 658.12 657.01"
 xmlns:xlink="http://www.w3.org/1999/xlink"
 xmlns:xodm="http://www.corel.com/coreldraw/odm/2003">
 <defs>
  <style type="text/css">
   <![CDATA[
    .fil0 {fill:#CCA95A;fill-rule:nonzero}
   ]]>
  </style>
 </defs>
 <g id="Layer_x0020_1">
  <metadata id="CorelCorpID_0Corel-Layer"/>
  <path class="fil0" d="M658.12 329.03c-7.2,-5.31 -44.72,-36.02 -55.17,-87.04 -10.92,-53.41 -52.86,-93.39 -98.91,-86.7l-0.78 0.1 -0.08 -0.99c6.7,-45.92 -33.39,-87.73 -86.96,-98.62 -51.16,-10.41 -81.06,-47.81 -86.39,-55l-0.46 -0.61c0,0 0.28,-0.38 0,0l-0.45 0.61c-5.33,7.18 -35.23,44.59 -86.39,55 -53.57,10.89 -93.66,52.7 -86.96,98.62l0.13 0.92 -1.31 -0.07c-45.94,-6.49 -87.72,33.44 -98.62,86.74 -10.44,51.01 -47.97,80.82 -55.17,86.14l-0.61 0.46 0.61 0.45c7.2,5.31 44.72,35.12 55.17,86.13 10.91,53.3 52.68,93.22 98.62,86.74l1.28 -0.13 -0.14 1.23c-6.5,45.8 33.54,87.47 87,98.33 51.16,10.41 81.06,47.82 86.39,55l0.45 0.62c0.14,-0.2 -0.12,0.18 0,0 0.08,0.09 -0.11,-0.17 0,0l0.46 -0.62c5.33,-7.18 35.22,-44.59 86.39,-55 53.46,-10.86 93.5,-52.53 86.99,-98.33l-0.09 -1.06 0.92 -0.08c46.05,6.69 87.98,-33.29 98.91,-86.7 10.44,-51.01 47.96,-80.82 55.17,-86.13zm-458.14 -15.43c0,32.78 26.75,59.45 59.63,59.45l0 0.28 54.41 -54.24 -64.25 -64.06c-28.2,4.7 -49.79,29.14 -49.79,58.58zm40.91 78.4c-35.6,-8.46 -62.19,-40.36 -62.19,-78.4 0,-43.8 35.2,-79.57 78.88,-80.65 0.68,-0.02 0,-0.02 0.68,-0.02l70.99 70.98 71.19 -70.99c18.61,0.25 35.58,6.79 48.98,17.59 0.99,0.8 1.97,1.63 2.92,2.47 0.95,0.85 1.88,1.71 2.79,2.6 0.46,0.45 0.91,0.9 1.35,1.35 0.45,0.46 0.89,0.92 1.32,1.38 0.43,0.47 0.86,0.94 1.28,1.41 0.42,0.48 0.84,0.96 1.25,1.45 0.41,0.49 0.82,0.98 1.22,1.48 0.4,0.49 0.79,0.99 1.18,1.5 0.39,0.5 0.77,1.01 1.15,1.53 0.38,0.51 0.75,1.03 1.11,1.56 0.37,0.52 0.72,1.05 1.08,1.59 0.35,0.53 0.7,1.07 1.04,1.61 0.34,0.54 0.68,1.09 1,1.64 0.32,0.55 0.65,1.11 0.96,1.67 0.31,0.56 0.62,1.12 0.92,1.69 0.3,0.57 0.59,1.14 0.89,1.72 0.29,0.58 0.57,1.16 0.84,1.74 0.28,0.59 0.55,1.17 0.81,1.76 0.26,0.59 0.51,1.19 0.76,1.79 0.25,0.6 0.49,1.2 0.72,1.81 0.23,0.6 0.46,1.22 0.68,1.83 0.22,0.61 0.43,1.23 0.64,1.85 0.2,0.62 0.4,1.24 0.59,1.87 0.2,0.63 0.38,1.26 0.55,1.89 0.18,0.63 0.34,1.27 0.5,1.91 0.16,0.64 0.31,1.28 0.46,1.93 0.15,0.65 0.29,1.29 0.41,1.95 0.13,0.65 0.25,1.3 0.37,1.96 0.11,0.66 0.22,1.31 0.32,1.98 0.1,0.66 0.19,1.32 0.28,1.99 0.08,0.67 0.16,1.34 0.22,2.01 0.07,0.68 0.12,1.35 0.17,2.03 0.05,0.68 0.1,1.35 0.13,2.03 0.03,0.69 0.06,1.37 0.08,2.05 0.01,0.69 0.02,1.38 0.02,2.07 0,38.02 -26.55,69.9 -62.11,78.38l31.46 31.46 -30.1 0 -89.6 -89.34 -89.62 89.34 -30.09 0 31.52 -31.43zm311.27 -59.1c-10.84,-10.31 -28.65,-31.09 -34.74,-60.87 -7.42,-36.24 -33.51,-59.81 -61.98,-56.06l-11.67 1.54 1.69 -11.62c3.96,-27.08 -20.46,-53.91 -55.6,-61.06 -29.63,-6.03 -50.14,-23.61 -60.5,-34.63 -10.33,10.8 -31.18,28.56 -61.06,34.63 -35.44,7.21 -60.1,34.19 -56.11,61.44l1.72 11.72 -11.77 -1.66c-27.26,-3.84 -54.23,20.63 -61.41,55.7 -6.09,29.78 -23.9,50.56 -34.74,60.87 11.06,10.33 28.69,30.77 34.74,60.32 7.13,34.83 34.89,60.08 61.9,56.26l11.72 -1.66 -1.66 11.69c-3.84,27.02 20.59,53.77 55.62,60.9 28.11,5.71 50.06,24.19 60.82,34.9 10.28,-11.02 30.88,-28.82 60.74,-34.9 35.03,-7.13 59.46,-33.88 55.62,-60.9l-1.66 -11.73 11.76 1.71c27.38,3.97 54.57,-20.74 61.84,-56.27 6.05,-29.55 23.67,-49.99 34.74,-60.32zm-275.81 73.49l52.06 -51.9 52.06 51.9 -52.06 51.9 -52.06 -51.9zm52.06 -129.72l-43.34 -43.2 43.34 -43.19 43.32 43.19 -43.32 43.2zm-17.33 -43.2l17.33 17.28 17.32 -17.28 -17.32 -17.27 -17.33 17.27zm97.28 21.54l-64.1 63.91 54.26 54.25 0 -0.13c32.88,0 59.63,-26.67 59.63,-59.45 0,-29.43 -21.59,-53.88 -49.78,-58.58zm-53.9 151.37l-26.06 -25.98 -26.05 25.98 26.05 25.98 26.06 -25.98zm-24.75 176.94l-7.23 -8.93c-0.24,-0.29 -24.59,-29.75 -57.74,-36.5 -40.66,-8.27 -69.04,-37.44 -70.24,-70.23 -32.85,-1.42 -62.98,-30.5 -71.22,-70.79 -6.86,-33.5 -31.45,-53.1 -36.3,-56.68l-9.67 -7.13 9.67 -7.14c1.17,-0.88 29.02,-21.79 36.3,-57.34 8.17,-39.96 38.1,-68.81 70.74,-70.24 1.32,-32.66 30.38,-62.6 70.73,-70.82 35.67,-7.25 56.63,-35.02 57.51,-36.19l7.16 -9.64 7.16 9.63c3.6,4.85 23.26,29.37 56.85,36.2 40.06,8.15 68.89,37.93 70.22,70.42 33.71,1.15 62.76,29.24 71.23,70.63 7.28,35.55 35.12,56.47 36.3,57.34l9.67 7.14 -9.67 7.13c-4.86,3.59 -29.45,23.17 -36.3,56.68 -8.27,40.4 -38.39,69.48 -71.2,70.83 -1.22,32.77 -29.61,61.92 -70.25,70.19 -33.59,6.83 -53.25,31.36 -56.85,36.2l-6.85 9.22zm124.9 -328.14l-0.04 -0.04 0 0 0.04 0.04zm-0.04 -0.04l-0.04 -0.04 0 0 0.04 0.04zm-0.13 -0.12l-0.04 -0.04 0 0 0.04 0.04zm-0.17 -0.16l-0.04 -0.04 0 0 0.04 0.04zm-0.13 -0.12l-0.04 -0.04 0 0 0.04 0.04zm-0.09 -0.08l-0.05 -0.04 0 0 0.05 0.04zm-0.05 -0.04l-0.04 -0.04 0 0 0.04 0.04zm-0.04 -0.04l-0.04 -0.04 0 0 0.04 0.04zm-0.09 -0.09l-0.04 -0.04 0 0 0.04 0.04zm-0.09 -0.08l-0.05 -0.04 0 0 0.04 0.04zm-0.05 -0.04l-0.04 -0.04 0 0 0.04 0.04zm-0.04 -0.04l-0.04 -0.04 0 0 0.04 0.04zm-0.09 -0.08l-0.04 -0.04 0 0 0.04 0.04zm-0.04 -0.04l-0.05 -0.04 0 0 0.04 0.04zm-0.05 -0.04l-0.04 -0.04 0 0 0.04 0.04zm-0.04 -0.04l-0.04 -0.04 0 0 0.04 0.04zm-0.04 -0.04l-0.04 -0.04 0 0 0.04 0.04zm-0.04 -0.04l-0.05 -0.04 0 0 0.04 0.04zm-0.05 -0.04l-0.04 -0.04 0 0 0.04 0.04zm-0.04 -0.04l-0.04 -0.04 0 0 0.04 0.04zm-0.04 -0.04l-0.04 -0.04 0 0 0.04 0.04zm-0.04 -0.04l-0.05 -0.04 0 0 0.04 0.04zm-0.05 -0.04l-0.04 -0.04 0 0 0.04 0.04zm-0.04 -0.04l-0.04 -0.04 0 0 0.04 0.04zm-0.04 -0.04l-0.04 -0.04 0 0 0.04 0.04zm-0.04 -0.04l-0.05 -0.04 0 0 0.05 0.04zm-0.09 -0.08l-0.04 -0.04 0 0 0.04 0.04zm-0.04 -0.04l-0.05 -0.04 0 0 0.04 0.04zm-0.09 -0.08l-0.04 -0.04 0 0 0.04 0.04zm-0.09 -0.08l-0.05 -0.04 0 0 0.05 0.04zm-0.14 -0.12l-0.04 -0.04 0 0 0.04 0.04zm-0.13 -0.12l-0.04 -0.04 0 0 0.04 0.04zm-1.12 -0.98l-0.04 -0.04 0 0 0.04 0.04zm-0.13 -0.11l-0.05 -0.04 0 0 0.05 0.04zm-0.05 -0.04l-0.04 -0.04 0 0 0.04 0.04zm-0.5 -0.43l-0.05 -0.04 0 0 0.05 0.04zm-0.19 -0.15l-0.04 -0.04 0 0 0.04 0.04zm-0.04 -0.04l-0.05 -0.04 0 0 0.05 0.04zm-0.1 -0.08l-0.04 -0.04 0 0 0.04 0.04zm-0.09 -0.08l-0.05 -0.04 0 0 0.04 0.04zm-0.09 -0.08l-0.05 -0.04 0 0 0.05 0.04zm-0.14 -0.11l-0.05 -0.04 0 0 0.05 0.04zm-0.14 -0.11l-0.05 -0.04 0 0 0.05 0.04zm-0.05 -0.04l-0.05 -0.04 0 0 0.05 0.04z"/>
 </g>
</svg>
